<svg xmlns="http://www.w3.org/2000/svg" version="1.1" xmlns:xlink="http://www.w3.org/1999/xlink" xmlns:svgjs="http://svgjs.dev/svgjs" viewBox="0 0 800 800" opacity="0.82"><defs><linearGradient x1="50%" y1="0%" x2="50%" y2="100%" id="uundulate-grad"><stop stop-color="hsl(353, 98%, 41%)" stop-opacity="1" offset="45%"></stop><stop stop-color="hsl(290, 87%, 47%)" stop-opacity="1" offset="100%"></stop></linearGradient></defs><g stroke-width="4" stroke="url(#uundulate-grad)" fill="none"><path d="M1359.8054420948215 -171.03576232011847C1508.813531189266 419.72548752645594 1745.8457429555824 1601.9754174278037 1422.0054920670177 1837.5317990519775C1098.1652411784535 2073.0881806761518 264.2065303504969 1325.0333387193527 -194.6277621702883 959.6348694759145C-653.4620546910735 594.236400232476 -750.1820972614873 465.54530607697416 -780.3991120327519 83.61914668347117C-810.6161268040165 -298.3070127100318 -649.4956364987024 -648.2479150097615 -339.6694330723617 -873.6106956128981C-29.843229646020973 -1098.9734762160344 352.7093987538567 -1144.491977980911 706.7666644136862 -998.122200211582C1060.823930073515 -851.752422442253 1210.7973530003774 -761.7970121666933 1359.8054420948215 -171.03576232011847C1508.813531189266 419.72548752645594 1745.8457429555824 1601.9754174278037 1422.0054920670177 1837.5317990519775 "></path><path d="M1329.8114562258306 -153.19089570128926C1474.163042536074 419.1090650875801 1703.7879976846925 1564.4136846795109 1390.0677546363954 1792.6089293779291C1076.3475115880988 2020.8041740763479 268.45001047351616 1296.1260459306986 -176.04571040599467 942.146278851118C-620.5414312855053 588.166511771537 -714.2389725255937 463.4970143083947 -743.5117055852563 93.5060473959386C-772.7844386449187 -276.4849195165175 -616.6989636616458 -615.4901686193808 -316.5548290923783 -833.8103623286693C-16.41069452311058 -1052.1305560379578 354.18716423927094 -1096.2266046226819 697.1801403472305 -954.4308824086444C1040.1731164551902 -812.6351601946069 1185.4598699155877 -725.4908564901584 1329.8114562258306 -153.19089570128926C1474.163042536074 419.1090650875801 1703.7879976846925 1564.4136846795109 1390.0677546363954 1792.6089293779291 "></path><path d="M1299.8175313919965 -135.3460290824596C1439.5126149180378 418.4926426487041 1661.7303134489594 1526.8519519312176 1358.1300782409298 1747.6860597038808C1054.5298430329003 1968.520167476544 272.69355163169143 1267.2187531420445 -157.46359760654457 924.6576882263212C-587.6207468447808 582.0966233105978 -678.2957867545438 461.44872253981475 -706.6242381026043 103.39294810840579C-734.9526894506648 -254.66282632300317 -583.902229789433 -582.7324222290001 -293.4401640772385 -794.0100290444404C-2.978098365043934 -1005.287635859881 355.66499075984143 -1047.9612312644526 687.5936773159312 -910.7395646057068C1019.5223638720208 -773.5178979469608 1160.1224478659542 -689.1847008136236 1299.8175313919965 -135.3460290824596C1439.5126149180378 418.4926426487041 1661.7303134489594 1526.8519519312176 1358.1300782409298 1747.6860597038808 "></path><path d="M1269.8236370757395 -117.50116246363041C1404.8622178175797 417.8762202098278 1619.6726597308034 1489.2902191829244 1326.192432363042 1702.763190029832C1032.7122049952804 1916.2361608767396 276.93712330744506 1238.3114603533904 -138.88145428951657 907.1690976015243C-554.7000318864782 576.0267348496586 -642.3525704659158 459.40043077123505 -669.7367401023744 113.27984882087299C-697.1209097388328 -232.8407331294893 -551.105465399642 -549.9746758386193 -270.32546854452073 -754.2096957602117C10.454528310600608 -958.4447156818042 357.14284779799004 -999.6958579062236 678.0072448022102 -867.0482468027692C998.87164180643 -734.4006356993148 1134.7850563338989 -652.8785451370888 1269.8236370757395 -117.50116246363041C1404.8622178175797 417.8762202098278 1619.6726597308034 1489.2902191829244 1326.192432363042 1702.763190029832 "></path><path d="M1239.8297427594825 -99.6562958448012C1370.2118207171216 417.25979777095176 1577.6150060126483 1451.7284864346311 1294.254786485154 1657.8403203557837C1010.8945669576601 1863.9521542769353 281.18069498319846 1209.4041675647363 -120.29931097248857 889.6805069767279C-521.7793169281756 569.9568463887194 -606.4093541772878 457.35213900265535 -632.8492421021442 123.16674953333995C-659.2891300270007 -211.018639935975 -518.308701009851 -517.2169294482386 -247.21077301180287 -714.409362475983C23.88715498624515 -911.6017955037274 358.62070483613843 -951.4304845479944 668.4208122884888 -823.3569289998316C978.2209197408395 -695.2833734516686 1109.4476648018435 -616.572389460554 1239.8297427594825 -99.6562958448012C1370.2118207171216 417.25979777095176 1577.6150060126483 1451.7284864346311 1294.254786485154 1657.8403203557837 "></path><path d="M1209.8356958553354 -81.81145974354968C1335.5612710287733 416.6433448144976 1535.5571997066022 1414.1667231687597 1262.316988019376 1612.9174201641563C989.0767763321496 1811.6681171595533 285.42411407106147 1180.496844258504 -101.7173202433512 872.1918858343533C-488.85875455776363 563.8869274102021 -570.4662904765504 455.3038167164973 -595.9618966898049 133.05361972822902C-621.4575029030593 -189.19657726003902 -485.5120892079506 -484.459213575436 -224.09623006697564 -674.6090597093324C37.31962907399941 -864.7589058432288 360.0984092863964 -903.1651417073434 658.8342271868771 -779.665641714472C957.570045087358 -656.1661417216006 1084.1101206818976 -580.2662643015972 1209.8356958553354 -81.81145974354968C1335.5612710287733 416.6433448144976 1535.5571997066022 1414.1667231687597 1262.316988019376 1612.9174201641563 "></path><path d="M1179.8419236093914 -63.966593124720475C1300.9109959986272 416.02692237562155 1493.4996680587592 1376.6049904204665 1230.379464211801 1567.994550490108C967.2592603648418 1759.3841105597494 289.66780781712737 1151.58955146985 -83.13505485601058 854.7032952095562C-455.93791752914854 557.8170389492627 -534.5229521176099 453.2555249479176 -559.0742766192623 142.94052044069622C-583.6256011209148 -167.37448406652481 -452.7152027478471 -451.7014671850553 -200.98141246394528 -634.8087264251037C50.752377819956564 -817.915985665152 361.5763883948573 -854.8997683491143 649.2479167434685 -735.9743239115344C936.9194450920797 -617.0488794739546 1058.7728512201552 -543.9601086250624 1179.8419236093914 -63.966593124720475C1300.9109959986272 416.02692237562155 1493.4996680587592 1376.6049904204665 1230.379464211801 1567.994550490108 "></path><path d="M1149.8480292931347 -46.12175702346917C1266.2605988981695 415.41046941916716 1451.4420143406041 1339.0432271545951 1198.441818333913 1523.071650298481C945.4416223272217 1707.100073442367 293.91137949288077 1122.6822281636178 -64.55291153898247 837.2146740671817C-423.01720257084594 551.7471199707454 -498.5797358289819 451.20720266175977 -522.1867786190323 152.8273906355853C-545.7938214090827 -145.55242139058873 -419.91843835805616 -418.94375131225274 -177.86671693122753 -595.008423658453C64.18500449560122 -771.0730960046534 363.0542454330057 -806.6344255084632 639.6614842297472 -692.2830366261749C916.2687230264889 -577.9316477438866 1033.4354596880999 -507.65398346610573 1149.8480292931347 -46.12175702346917C1266.2605988981695 415.41046941916716 1451.4420143406041 1339.0432271545951 1198.441818333913 1523.071650298481 "></path><path d="M1119.8540129065655 -28.276890404639744C1231.610079727399 414.79404698029134 1409.3842385521361 1301.4814944063019 1166.5040503857126 1478.1487806244327C923.6238622192891 1654.816066842563 298.1548290983219 1093.7749353749637 -45.97089029226697 819.7260834423848C-390.09660968285584 545.6772315098062 -462.63664161066635 449.15891089317984 -485.29940268911474 162.7142913480527C-507.96216376756314 -123.73032819707464 -387.12179603857766 -386.1860049218719 -154.75214346882206 -555.2080903742243C77.61750910093338 -724.2301758265767 364.5319804008418 -758.3690521502341 630.0749296457136 -648.5917188232373C895.6178788905856 -538.8143854962406 1008.097946085732 -471.34782778957083 1119.8540129065655 -28.276890404639744C1231.610079727399 414.79404698029134 1409.3842385521361 1301.4814944063019 1166.5040503857126 1478.1487806244327 "></path><path d="M1089.8600880727308 -10.432023785810543C1196.9596521093627 414.17762454141507 1367.3265543164025 1263.9197616580086 1134.5663739902466 1433.2259109503839C901.8061936640909 1602.5320602427587 302.3983702564974 1064.8676425863096 -27.3887774928171 802.2374928175882C-357.1759252421314 539.607343048867 -426.69345583961643 447.1106191245999 -448.41193520646283 172.60119206051968C-470.1304145733092 -101.90823500356055 -354.3250621663648 -353.4282585314912 -131.63747845368243 -515.4077570899956C91.05010525900002 -677.3872556484998 366.0098069214123 -710.103678792005 620.4884666144144 -604.9004010202997C874.9671263074165 -499.6971232485945 982.7605240360988 -435.04167211303593 1089.8600880727308 -10.432023785810543C1196.9596521093627 414.17762454141507 1367.3265543164025 1263.9197616580086 1134.5663739902466 1433.2259109503839 "></path><path d="M1059.8661327213179 7.412903868175249C1162.3091939737485 413.5612631376953 1325.2688395630908 1226.358089944872 1102.6286670772026 1388.3031023114918C879.9884945913145 1550.2481146781115 306.6418808970948 1035.960410832812 -8.806695210945236 784.748963227948C-324.2552713189851 533.5375156230841 -390.75030058614465 445.0623883911767 -411.52449824138904 182.48815380814335C-432.29869589663343 -80.08608077488998 -321.52835881173 -320.67045110595427 -108.52284395612082 -475.6073627706105C104.48267089948843 -630.5442744352669 367.48760292440465 -661.8382443986195 610.901973065537 -561.2090221822059C854.3163432066694 -460.57979996579206 957.4230714688874 -398.7354554013449 1059.8661327213179 7.412903868175249C1162.3091939737485 413.5612631376953 1325.2688395630908 1226.358089944872 1102.6286670772026 1388.3031023114918 "></path><path d="M1029.8722994402174 25.257770487004677C1127.6588579084466 412.94484069881923 1283.2112468800917 1188.7963571965788 1070.6910822344712 1343.380232637443C858.1709175888507 1497.9641080783072 310.8855136080042 1007.0531180441576 9.775509141239127 767.2603726031514C-291.33449532552623 527.4676271621449 -354.80702326236036 443.01409662259675 -374.63693920600275 192.37505452061032C-394.4668551496451 -58.263987581375886 -288.73153338678276 -287.91270471557345 -85.40808738824671 -435.8070294863818C117.91535861028945 -583.7013542571901 368.9655209977093 -613.5728710403904 601.3156015869722 -517.5177043792683C833.6656821762349 -421.462537718146 932.0857409719883 -362.42929972481 1029.8722994402174 25.257770487004677C1127.6588579084466 412.94484069881923 1283.2112468800917 1188.7963571965788 1070.6910822344712 1343.380232637443 "></path><path d="M999.8784051239609 43.102637105834106C1093.0084608079887 412.3284182599432 1241.1535931619362 1151.2346244482856 1038.7534363565833 1298.4573629633942C836.3532795512306 1445.6801014785033 315.12908528375783 978.1458252555037 28.35765245826701 749.7717819783547C-258.41378036722364 521.3977387012058 -318.8638069737324 440.9658048540173 -337.7494412057727 202.26195523307774C-356.63507543781304 -36.44189438786168 -255.9347689969918 -255.15495832519275 -62.29339185552885 -396.0066962021531C131.3479852859341 -536.8584340791133 370.4433780358577 -565.3074976821613 591.7291690732509 -473.82638657633055C813.0149601106443 -382.3452754704999 906.748349439933 -326.1231440482751 999.8784051239609 43.102637105834106C1093.0084608079887 412.3284182599432 1241.1535931619362 1151.2346244482856 1038.7534363565833 1298.4573629633942 "></path><path d="M969.884480290126 60.94747320708541C1058.3580331899525 411.71196530348925 1199.0959089262026 1113.6728611824142 1006.8157599611175 1253.5344627717677C814.5356109960323 1393.3960643611208 319.3726264419332 949.2385019492715 46.939765257717 732.28316083598C-225.49309592649917 515.3278197226887 -282.92062120268247 438.9174825678592 -300.8619737231208 212.1488254279668C-318.8033262435591 -14.619831711925599 -223.13803512477892 -222.39724245239017 -39.17872684038912 -356.20639343550243C144.78058144400075 -490.0155444186147 371.92120455642817 -517.0421548415102 582.1427060419517 -430.1350992909711C792.3642075274754 -343.228043740432 881.4109273902998 -289.81701888931843 969.884480290126 60.94747320708541C1058.3580331899525 411.71196530348925 1199.0959089262026 1113.6728611824142 1006.8157599611175 1253.5344627717677 "></path><path d="M939.8905554562914 78.7924313786491C1023.7076055719162 411.09563441734736 1157.0382246904692 1076.1112199868555 974.8780835656517 1208.6116846504533C792.7179424408341 1341.1121493140513 323.6161676001086 920.3313007133515 65.52187805716699 714.7946617639177C-192.5724114857747 509.25802281448364 -246.97743543163256 436.8692823520139 -263.9745062404689 222.03581769316838C-280.97157704930515 7.2023530343228686 -190.34130125256604 -189.6394045092751 -16.064061825249382 -316.4059685985393C158.21317760206728 -443.17253268780354 373.39903107699854 -468.77668993054664 572.5562430106525 -386.44368993529906C771.7134549443065 -304.1106899400515 856.0735053406663 -253.51077166004916 939.8905554562914 78.7924313786491C1023.7076055719162 411.09563441734736 1157.0382246904692 1076.1112199868555 974.8780835656517 1208.6116846504533 "></path><path d="M909.8965695873003 96.6372674799004C989.057116918724 410.47918146089296 1114.9804794195795 1038.5494567209842 942.9403461350296 1163.6887844588266C770.9002128504794 1288.8281121966688 327.85964772312775 891.4239774071193 84.10392982146061 697.3060406215429C-159.65178808020653 503.18810383596633 -211.0343106957389 434.82096006585607 -227.08709979297322 231.92268788805745C-243.1398888902075 29.024415710259063 -157.5446284155094 -156.88168863647252 7.050542154734103 -276.6056658318887C171.64571272497756 -396.32964302730494 374.87679656241266 -420.51134708989565 562.969718944197 -342.7524026499396C751.0626413259811 -264.99345820998354 830.7360222558766 -217.2046465010925 909.8965695873003 96.6372674799004C989.057116918724 410.47918146089296 1114.9804794195795 1038.5494567209842 942.9403461350296 1163.6887844588266 "></path><path d="M879.9026752710436 114.48207306357358C954.4067198182659 409.8626979868609 1072.922825701424 1000.9876629375347 911.0027002571417 1118.7658537496216C749.0825748128595 1236.5440445617087 332.10321939888127 862.5166235833092 102.68607313848861 679.81738896159C-126.73107312190393 497.11815433987067 -175.09109440711086 432.7726072621199 -190.19960179274318 241.8095275653684C-205.30810917837545 50.846447868616906 -124.7478640257184 -124.12400328124795 30.165237687451963 -236.80539358281624C185.07833940062233 -349.4867838843844 376.35465360056116 -372.24603476682273 553.3832864304759 -299.0611458821582C730.4119192603903 -225.87625699749367 805.3986307238215 -180.89855185971385 879.9026752710436 114.48207306357358C954.4067198182659 409.8626979868609 1072.922825701424 1000.9876629375347 911.0027002571417 1118.7658537496216 "></path><path d="M849.9087504372092 132.32697019998113C919.7562922002298 409.246306065563 1030.8651414656906 963.4259607068198 879.0650238616759 1073.8430145931513C727.2649062576611 1184.260068479483 336.34676055705665 833.6093613122332 121.2681859379386 662.3288288543715C-93.81038868117946 491.04829639650984 -139.147908636061 430.7243460111183 -153.31213431009127 251.69645879541383C-167.47635998412147 72.66857157970935 -91.95113015350557 -91.36622637328912 53.2799027025917 -197.00502978100928C198.51093555868897 -302.64383318872956 377.83248012113165 -323.98063089101544 543.7968233991764 -255.36979756164249C709.7611666772214 -186.75896423226948 780.061208674188 -144.59236566560094 849.9087504372092 132.32697019998113C919.7562922002298 409.246306065563 1030.8651414656906 963.4259607068198 879.0650238616759 1073.8430145931513 "></path><path d="M819.9148561209522 150.17183681881033C885.1058950997717 408.62988362668693 988.8074877475351 925.8642279585265 847.1273779837879 1028.9201449191028C705.447268220041 1131.9760618796786 340.59033223281017 804.7020685235791 139.8503292549667 644.8402382295749C-60.889673722876864 484.97840793557066 -103.20469234743297 428.6760542425386 -116.42463630986123 261.5833595078809C-129.64458027228943 94.49066477322344 -59.154365763714566 -58.60847998290842 76.39459823530956 -157.20469649678057C211.9435622343335 -255.80091301065278 379.31033715928015 -275.71525753278627 534.2103908854554 -211.67847975870484C689.1104446116306 -147.64170198462335 754.7238171421327 -108.28620998906604 819.9148561209522 150.17183681881033C885.1058950997717 408.62988362668693 988.8074877475351 925.8642279585265 847.1273779837879 1028.9201449191028 "></path><path d="M789.9209312871176 168.01670343763976C850.4554674817355 408.0134611878108 946.7498035118015 888.3024952102332 815.1897015883224 983.997275245054C683.6295996648428 1079.6920552798747 344.83387339098556 775.794775734925 158.43244205441658 627.351647604778C-27.968989282152393 478.90851947463125 -67.26150657638306 426.6277624739588 -79.53716882720931 271.4702602203481C-91.81283107803552 116.31275796673754 -26.357631891501683 -25.850733592527604 99.5092632504493 -117.40436321255186C225.37615839240016 -208.957992832576 380.7881636798505 -227.44988417455716 524.6239278541561 -167.9871619557672C668.4596920284616 -108.52443973697729 729.3863950924995 -71.9800543125312 789.9209312871176 168.01670343763976C850.4554674817355 408.0134611878108 946.7498035118015 888.3024952102332 815.1897015883224 983.997275245054 "></path><path d="M759.9270064532827 185.8615700564692C815.8050398636994 407.39703874893473 904.6921192760681 850.74076246194 783.2520251928563 939.0744055710054C661.8119311096445 1027.4080486800706 349.07741454916095 746.8874829462709 177.01455485386646 609.8630569799816C4.951695158572079 472.8386310136922 -31.318320805333144 424.579470705379 -42.64970134455734 281.3571609328154C-53.9810818837816 138.13485116025174 6.4391019807112 6.907012797853099 122.62392826558903 -77.60402992832309C238.8087545504667 -162.11507265449927 382.2659902004209 -179.184510816328 515.0374648228568 -124.2958441528296C647.8089394452927 -69.40717748933122 704.048973042866 -35.67389863599635 759.9270064532827 185.8615700564692C815.8050398636994 407.39703874893473 904.6921192760681 850.74076246194 783.2520251928563 939.0744055710054 "></path><path d="M729.933112137026 203.70646719287674C781.1546427632416 406.7806468276367 862.6344655579126 813.1790602312251 751.3143793149684 894.151566414535C639.9942930720244 975.1240725978448 353.3209862249146 717.9802206751951 195.59669817089457 592.3744968727631C37.872410116874676 466.7687730703311 4.624895483294836 422.5312094543774 -5.762203344327304 291.24409216286074C-16.1493021719495 159.95697487134407 39.23586637050215 39.66478970581193 145.73862379830678 -37.80366612651619C252.24138122611134 -115.27212195884437 383.7438472385695 -130.9191069405207 505.4510323091357 -80.60449583231383C627.1582173797019 -30.28988472410697 678.7115815108109 0.6322875581166159 729.933112137026 203.70646719287674C781.1546427632416 406.7806468276367 862.6344655579126 813.1790602312251 751.3143793149684 894.151566414535 "></path><path d="M699.9391873031914 221.55133381170617C746.5042151452053 406.16422438876066 820.5767813221792 775.6173274829318 719.3767029195026 849.2286967404862C618.1766245168262 922.8400659980407 357.56452738308985 689.072927886541 214.17881097034444 574.8859062479664C70.79309455759915 460.69888460939194 40.56808125434475 420.4829176857977 31.12526413832461 301.13099287532793C21.682447022304416 181.77906806485817 72.03260024271503 72.42253609619269 168.8532888134465 1.9966671577125226C265.673977384178 -68.42920178076758 385.2216737591398 -82.65373358229152 495.8645692778364 -36.91317802937624C606.5074647965331 8.827377523539099 653.3741594611774 36.938443234651515 699.9391873031914 221.55133381170617C746.5042151452053 406.16422438876066 820.5767813221792 775.6173274829318 719.3767029195026 849.2286967404862 "></path><path d="M669.9452929869348 239.3962004305355C711.8538180447472 405.5478019498846 778.5191276040237 738.0555947346388 687.4390570416149 804.3058270664376C596.3589864792061 870.5560593982366 361.80809905884337 660.1656350978867 232.76095428737256 557.3973156231698C103.71380951590169 454.62899614845276 76.51129754297278 418.4346259172179 68.01276213855465 311.01789358779513C59.51422673413646 203.60116125837237 104.82936463250604 105.18028248657339 191.96798434616437 41.79700044194129C279.10660405982276 -21.58628160269086 386.6995307972884 -34.38836022406241 486.2781367641153 6.778139773561406C585.8567427309423 47.944639771185166 628.0367679291222 73.24459891118636 669.9452929869348 239.3962004305355C711.8538180447472 405.5478019498846 778.5191276040237 738.0555947346388 687.4390570416149 804.3058270664376 "></path><path d="M639.9513376355218 257.24112808452116C677.2033599091329 404.9314405461648 736.461412850712 700.4939230215018 655.5013501285708 759.3830184275453C574.5412874064298 818.2721138335887 366.05160969944063 631.258403344389 251.3430365692443 539.9087860335294C136.63446343904803 448.5591687226697 112.45445279644457 416.3863951837943 104.90019910362844 320.9048553354186C97.3459454108123 225.42331548704283 137.6260679871408 137.9380899121104 215.08261884372598 81.59739476132626C292.53916970031116 25.25669961054217 388.1773268002805 13.87707416932301 476.69164321523795 50.469518611655246C565.2059596301951 87.06196305398754 602.6993153619107 109.55081562287745 639.9513376355218 257.24112808452116C677.2033599091329 404.9314405461648 736.461412850712 700.4939230215018 655.5013501285708 759.3830184275453 "></path><path d="M609.9574433192652 275.08593366819423C642.5529628086749 404.31495707213253 694.4037591325566 662.9321292380523 623.563704250683 714.4600877183404C552.7236493688096 765.9880461986284 370.29518137519415 602.3510495205786 269.9251798862724 522.4201343735765C169.55517839735063 442.4892192265744 148.3976690850726 414.33804238005837 141.78769710385848 330.7916950127295C135.17772512264435 247.24534764540078 170.4228323769318 170.69577526733485 238.19731437644384 121.39766701039878C305.9717963759558 72.0995587534627 389.65518383842914 62.14238649239593 467.10521070151674 94.16077537943664C544.5552375646043 126.17916426647736 577.3619238298554 145.85691026425604 609.9574433192652 275.08593366819423C642.5529628086749 404.31495707213253 694.4037591325566 662.9321292380523 623.563704250683 714.4600877183404 "></path><path d="M579.9635032266414 292.93080028702366C607.9025199318497 403.6985346332565 652.346059638034 625.3703964897591 591.6260125964282 669.5372180442918C530.9059655548223 713.7040395988244 374.5387072745805 573.4437567319245 288.50727742693323 504.93154374877986C202.47584757928604 436.4193307656351 184.3408395973334 412.28975061147855 178.67514932772133 340.67859572519683C173.0094590581092 269.067440838915 203.21955099035557 203.4535216577156 261.3119641327945 161.1980002946275C319.40437727523334 118.94247893153943 391.13299510021045 110.4077598506251 457.51873241142835 137.8520931823743C523.9044697226464 165.29642651412348 552.024486521433 182.1630659407909 579.9635032266414 292.93080028702366C607.9025199318497 403.6985346332565 652.346059638034 625.3703964897591 591.6260125964282 669.5372180442918 "></path><path d="M549.9695936515957 310.7756669058531C573.2521075726027 403.08211219438033 610.2883906610896 587.8086637414659 559.6883514597513 624.6143483702431C509.0883122584131 661.4200329990203 378.7822636915449 544.5364639432705 307.0894054851722 487.4429531239832C235.39654727879957 430.3494423046959 220.28404062717237 410.24145884289885 215.5626320691623 350.565496437664C210.84122351115224 290.8895340324291 236.01630012135752 236.21126804809637 284.42664440672326 200.99833357885626C332.836988692089 165.7853991096162 392.6108368795699 158.6731332088542 447.9322846389182 181.54341098531188C503.2537323982665 204.41368876176955 526.6870797305887 218.46922161732573 549.9695936515957 310.7756669058531C573.2521075726027 403.08211219438033 610.2883906610896 587.8086637414659 559.6883514597513 624.6143483702431 "></path><path d="M519.9756840765499 328.62053352468246C538.6016952133555 402.4656897555043 568.230721684145 550.2469309931728 527.7506903230744 579.6914786961945C487.27065896200395 609.1360263992162 383.0258201085094 515.6291711546164 325.6715335434112 469.9543624991866C268.3172469783131 424.27955384375673 256.22724165701135 408.19316707431904 252.45011481060328 360.4523971501312C248.67298796419522 312.7116272259433 268.81304925235946 268.9690144384771 307.54132468065205 240.79866686308503C346.26960010894464 212.62831928769293 394.0886786589293 206.93850656708338 438.34583686640804 225.23472878824953C482.60299507388663 243.53095100941562 501.34967293974444 254.77537729386057 519.9756840765499 328.62053352468246C538.6016952133555 402.4656897555043 568.230721684145 550.2469309931728 527.7506903230744 579.6914786961945 "></path><path d="M489.98177450150433 346.46538488472277C503.9512828541085 401.8492520578392 526.1730527072007 512.6851829860905 495.81302918639767 534.7685937633569C465.4530056655947 556.852004540623 387.26937652547383 486.72186310717325 344.2536616016502 452.46575661560087C301.2379466778266 418.2096501240285 292.1704426868503 406.14486004695027 289.33759755204426 370.33928260380935C286.5047524172382 334.53370516066843 301.6097983833614 301.7267455700687 330.65600495458085 280.5989848885247C359.7022115258003 259.47122420698065 395.5665204382888 255.2038646665235 428.75938909389777 268.92603133239805C461.95225774950677 282.6481979982727 476.01226614890015 291.08151771160635 489.98177450150433 346.46538488472277C503.9512828541085 401.8492520578392 526.1730527072007 512.6851829860905 495.81302918639767 534.7685937633569 "></path><path d="M459.9878344088804 364.3102667623412C469.3008399772832 401.23284487775214 484.115353212678 475.1234654965864 463.8753375321427 489.84573934809725C443.63532185160744 504.5680131996081 391.51290242486016 457.8145855773082 362.8357591423111 434.9771812495933C334.158615859762 412.13977692187837 328.1136131991111 404.0965835371595 326.2250497759071 380.2261985750656C324.33648635270305 356.35581361297164 334.4065169967852 334.48450721923854 353.77065471093147 320.3993334315425C373.13479242507776 306.3141596438465 397.04433170007013 303.4692532835417 419.1729108038095 312.61736439412476C441.3014899075488 321.7654755047078 450.6748288404777 327.3876886469303 459.9878344088804 364.3102667623412C469.3008399772832 401.23284487775214 484.115353212678 475.1234654965864 463.8753375321427 489.84573934809725 "></path><path d="M429.99392483383474 382.15513338117063C434.65042761803613 400.61642243887604 442.0576842357335 437.5617327482932 431.93767639546587 444.9228696740486C421.8176685551982 452.28400659980406 395.7564588418246 428.9072927886541 381.41788720055007 417.48859062479664C367.0793155592755 406.0698884609392 364.0568142289501 402.04829176857976 363.1125325173481 390.1130992875328C362.1682508057461 378.1779068064858 367.2032661277871 367.24225360961924 376.88533498486026 360.19966671577123C386.5674038419334 353.1570798219232 398.5221734794296 351.73462664177083 409.5864630312993 356.30868219706235C420.6507525831689 360.88273775235393 425.33742204963335 363.69384432346516 429.99392483383474 382.15513338117063C434.65042761803613 400.61642243887604 442.0576842357335 437.5617327482932 431.93767639546587 444.9228696740486 "></path></g></svg>